Coordinates
version=1
nRows=5
nColumns=40
inDegrees=yes

Units are S.I. units (second, meters, Newtons, ...)
If the header above contains a line with 'inDegrees', this indicates whether rotational values are in degrees (yes) or radians (no).

endheader
time	pelvis_tilt	pelvis_list	pelvis_rotation	pelvis_tx	pelvis_ty	pelvis_tz	hip_flexion_r	hip_adduction_r	hip_rotation_r	knee_angle_r	knee_angle_r_beta	ankle_angle_r	subtalar_angle_r	mtp_angle_r	hip_flexion_l	hip_adduction_l	hip_rotation_l	knee_angle_l	knee_angle_l_beta	ankle_angle_l	subtalar_angle_l	mtp_angle_l	lumbar_extension	lumbar_bending	lumbar_rotation	arm_flex_r	arm_add_r	arm_rot_r	elbow_flex_r	pro_sup_r	wrist_flex_r	wrist_dev_r	arm_flex_l	arm_add_l	arm_rot_l	elbow_flex_l	pro_sup_l	wrist_flex_l	wrist_dev_l
      0.63000000	     -1.93021878	      9.52924818	    -89.84392724	      0.21084033	      0.92900415	     -0.00928123	     -8.44326327	      5.12918542	     -0.84755869	      6.24803663	      0.10904881	     10.02519490	     -0.00000000	     -0.00000000	     36.51502891	     -1.42540041	      1.44570645	      1.67740892	      0.02927631	      5.38119201	      0.00000000	      0.00000000	      3.44912275	      0.03638149	      3.90732638	      0.00000000	      0.00000000	      0.00000000	      0.00000000	      0.00000000	     -0.00000000	      0.00000000	      0.00000000	     -0.00000000	      0.00000000	      0.00000000	      0.00000000	      0.00000000	      0.00000000
      0.64000000	     -1.91937812	      9.65278953	    -89.85930609	      0.21208834	      0.92583923	      0.00881604	     -9.13087885	      4.97864225	     -0.85492314	      6.98704849	      0.12194700	      9.84291800	      0.00000000	      0.00000000	     36.91531461	     -1.31948878	      1.76267997	      2.28342520	      0.03985329	      5.25661490	      0.00000000	      0.00000000	      3.73862470	     -0.02151059	      3.85120728	      0.00000000	      0.00000000	      0.00000000	      0.00000000	      0.00000000	      0.00000000	      0.00000000	      0.00000000	      0.00000000	      0.00000000	      0.00000000	      0.00000000	      0.00000000	      0.00000000
      0.65000000	     -1.83137546	      9.70385262	    -89.86943753	      0.21336909	      0.92313217	      0.02710353	     -9.72447367	      4.72294485	     -0.92820648	      8.04997235	      0.14049852	      9.58613176	      0.00000000	      0.00000000	     37.25504030	     -1.12316360	      2.09961265	      3.52977160	      0.06160614	      4.97169620	      0.00000000	      0.00000000	      3.95124569	     -0.20841316	      3.77212309	      0.00000000	      0.00000000	      0.00000000	      0.00000000	      0.00000000	      0.00000000	      0.00000000	      0.00000000	      0.00000000	      0.00000000	      0.00000000	      0.00000000	      0.00000000	      0.00000000
      0.66000000	     -1.64411706	      9.75093278	    -89.87858689	      0.21486755	      0.92073416	      0.04551836	    -10.00414283	      4.27007492	     -1.66224331	      9.69045226	      0.16913030	      9.37825454	      0.00000000	      0.00000000	     37.86823950	     -0.86303768	      1.20611867	      5.77295232	      0.10075703	      4.67705757	      0.00000000	      0.00000000	      4.15781500	     -0.45873233	      3.72119422	      0.00000000	      0.00000000	      0.00000000	      0.00000000	      0.00000000	      0.00000000	      0.00000000	      0.00000000	      0.00000000	      0.00000000	      0.00000000	      0.00000000	      0.00000000	      0.00000000
      0.67000000	     -1.47477161	      9.83566459	    -89.88520180	      0.21630950	      0.91870480	      0.06415278	    -10.16468725	      3.84593160	     -1.98890009	     11.40423688	      0.19904148	      8.54672291	      0.00000000	      0.00000000	     38.40558345	     -0.63083764	      0.60570198	      8.09985662	      0.14136917	      3.61360817	      0.00000000	      0.00000000	      4.45771481	     -0.72551420	      3.63156575	      0.00000000	      0.00000000	      0.00000000	      0.00000000	      0.00000000	      0.00000000	      0.00000000	      0.00000000	      0.00000000	      0.00000000	      0.00000000	      0.00000000	      0.00000000	      0.00000000
